<svg xmlns="http://www.w3.org/2000/svg" viewBox="0 0 552.78 656"><defs><style>.cls-1{isolation:isolate;}.cls-2,.cls-3,.cls-4,.cls-5,.cls-7,.cls-8{fill:none;stroke-linecap:round;stroke-miterlimit:10;}.cls-2,.cls-7,.cls-8{stroke:#0d6c82;}.cls-2,.cls-3,.cls-4,.cls-5{stroke-width:30px;}.cls-3{stroke:#8cc63f;}.cls-4{stroke:#074b60;}.cls-4,.cls-6{opacity:0.92;mix-blend-mode:multiply;}.cls-5{stroke:#f2f2f2;opacity:0.71;}.cls-6{fill:#074b60;}.cls-7{stroke-width:20px;}.cls-8{stroke-width:10px;}.cls-9{font-size:146.13px;fill:#0d6b81;font-family:Roboto;}.cls-10{fill:#fff;}</style></defs><title>map3</title><g class="cls-1"><g id="Calque_1" data-name="Calque 1"><circle cx="275.8" cy="269.72" r="44.32"/><path id="_Tracé_" data-name="&lt;Tracé&gt;" class="cls-2" d="M140.3,399A186,186,0,0,1,88.72,270.2c0-103.05,83.54-186.6,186.6-186.6s186.6,83.54,186.6,186.6A186,186,0,0,1,410.33,399"/><path id="_Tracé_2" data-name="&lt;Tracé&gt;" class="cls-3" d="M275.31,384A113.81,113.81,0,1,1,389.13,270.2"/><path id="_Tracé_3" data-name="&lt;Tracé&gt;" class="cls-4" d="M461.91,270.2A186,186,0,0,1,410.33,399"/><path id="_Tracé_4" data-name="&lt;Tracé&gt;" class="cls-5" d="M140.3,399a186.63,186.63,0,0,1,40.57-289.77"/><circle class="cls-6" cx="180.87" cy="109.23" r="15.13"/><circle class="cls-6" cx="321.79" cy="166.2" r="15.13"/><circle class="cls-6" cx="195" cy="349.73" r="15.13"/><path class="cls-7" d="M275.31,218.79a51.4,51.4,0,1,1-51.4,51.4"/><line class="cls-8" x1="115.2" y1="116.32" x2="62.24" y2="63.36"/><g id="_Groupe_" data-name="&lt;Groupe&gt;"><text class="cls-9" transform="translate(132.57 554.96)">ono</text></g><circle class="cls-10" cx="247.79" cy="242.67" r="23.88"/></g></g></svg>